# xmcd
#
# Track frame offsets:
#	150
#	17348
#	33800
#	51539
#	66323
#	81777
#	98841
#	116078
#	132300
#	148647
#	168360
#	183641
#	199959
#	213905
#	231720
#	247942
#	265442
#	280872
#
# Disc length: 3967 seconds
#
# Revision: 1
# Processed by: cddbd v1.5.1PL0 Copyright (c) Steve Scherf et al.
# Submitted via: audiograbber 1.83.01
#
DISCID=0f0f7d12
DTITLE=Various Artist - Chart Hits 02-08
DYEAR=2002
DGENRE=Top 40
TTITLE0=Jamiroquai - Corner Of The Earth
TTITLE1=Beyonce Knowles - Work It Out
TTITLE2=Selwyn - Rich Girl
TTITLE3=Atomic Kitten - It's Ok
TTITLE4=A1 - Caught In The Middle
TTITLE5=Enrique Eglesias - Don't Turn Off The lights
TTITLE6=George Michael - Shoot The Dog
TTITLE7=Paulina Rubio - Don't Say Goodbye
TTITLE8=H and Claire - DJ
TTITLE9=Paul Mack - Stay
TTITLE10=Danielle - Tell Me If You Like It
TTITLE11=Red Hot Chilli Peppers - By The Way
TTITLE12=Shakedown - At Night
TTITLE13=Moony - Dove (I'll Be Loving You)
TTITLE14=Machine Gun Felatio - Rollercoaster
TTITLE15=DJ Sammy and Yanou - Heaven
TTITLE16=kelly Osbourne - Papa Don't Preach
TTITLE17=Shakira - Objection
EXTD=
EXTT0=
EXTT1=
EXTT2=
EXTT3=
EXTT4=
EXTT5=
EXTT6=
EXTT7=
EXTT8=
EXTT9=
EXTT10=
EXTT11=
EXTT12=
EXTT13=
EXTT14=
EXTT15=
EXTT16=
EXTT17=
PLAYORDER=
